Patient4_TMGait_0pt4_03_right_24_EMG.mot
version=1
nRows=33
nColumns=33
inDegrees=no
endheader
time	1LAddLong	2LGlutMax	3LGlutMed	4LIliopsoas	5LSemiMemb	6LBicFemLong	7LRecFem	8LVastMed	9LVastLat	10LGasMed	11LTibAnt	12lTibPost	13LPeroneusLong	14LSol	15LExtDigLong	16LFlexDigLong	17RAddLong	18RGlutMax	19RGlutMed	20RIliopsoas	21RSemiMemb	22RBicFemLong	23RRecFem	24RVastMed	25RVastLat	26RGasMed	27RTibAnt	28RTibPost	29RPeroneusLong	30RSol	31RExtDigLong	32RFlexDigLong
32.27	0.004272	-0.061951	0.024414	-0.009155	0.006104	0.042725	-0.004578	0.006714	0.037231	-0.076599	0.00946	-0.006561	0.59357	0.27069	0.026245	0.003662	-0.001984	-0.020294	-0.41626	-0.11826	0.094757	0.075378	-0.015106	-0.037231	-0.002289	-0.006256	0.47714	-0.010376	0.014801	-0.00351	0	-0.006256
32.271	0.000916	-0.038757	0.02655	-0.025482	-0.000458	0.056915	0.012207	0.01297	0.041962	-0.089722	-0.002136	0.000305	0.12375	0.13107	-0.12009	-0.002441	-0.011597	-0.02655	-0.26657	-0.08667	0.12436	0.078278	0.022736	-0.070648	0.001373	-0.001831	0.50095	-0.013733	0.000153	-0.072174	-0.001373	0.000916
32.272	0.006104	-0.027161	0.018768	-0.00412	0.007477	-0.16464	-0.022278	0.007935	0.041046	-0.02182	-0.026245	-0.006256	-0.89798	0.082855	-0.043488	0.016022	-0.026093	-0.012054	0.071869	-0.090942	0.089264	0.042267	-0.022736	-0.009155	0.014343	0.011597	0.28198	-0.010376	0.039368	-0.013885	-0.006104	-0.003052
32.273	0.006409	-0.049438	0.025177	-0.00473	0.01236	-0.062408	0.001221	0.004425	0.046387	-0.03067	0.002136	-0.010529	0.30045	0.039063	-0.068359	0.006561	-0.021515	0.003967	0.1593	-0.036011	0.031281	0.009155	-0.039825	-0.016785	0.003357	0.000305	-0.52353	-0.015106	0.088348	0.031281	-0.001831	-0.005493
32.274	0.004883	-0.039063	-0.002136	0.033264	0.016174	-0.092621	0.009003	0.002594	0.039825	-0.013428	-0.054169	-0.005646	0.065002	0.12634	-0.018005	0.008698	-0.016479	0.01297	-0.067444	0.005035	-0.010071	0.042114	-0.042877	0.005341	0.003967	-0.000153	-0.5954	-0.013275	-0.009003	-0.010681	0	-0.003815
32.275	0.003662	-0.019073	0.007324	0.029144	0.020294	-0.097351	-0.003662	0.001678	0.043182	0.037384	0.019684	-0.012054	-0.10147	0.13428	-0.004578	0.00351	-0.024414	-0.024109	-0.070343	-0.076447	-0.067749	0.031891	-0.088501	-0.019684	0.007019	0.000305	-0.14496	-0.006104	-0.10132	-0.040741	-0.002136	-0.005188
32.276	0.008392	-0.031281	0.029602	0.010529	0.022278	-0.063477	-0.039673	0.009155	0.0354	0.056152	0.05249	0.004272	-0.18082	-0.049438	-0.17975	0.001984	-0.015564	-0.064392	-0.058441	-0.10712	0.009155	-0.021667	-0.052948	-0.050812	0.003357	-0.000305	0.045166	-0.009766	-0.020447	-0.037689	-0.007172	0.001831
32.277	0.005341	-0.016785	0.037537	0.007324	0.014801	-0.01236	-0.018768	0.006714	0.02182	-0.019684	0.045319	0.003815	0.1622	0.003052	-0.016479	0.014038	-0.000458	-0.049133	0.015106	-0.14282	0.075226	-0.040131	-0.048065	-0.043793	-0.00885	0.000305	-0.024567	-0.010834	0.015411	-0.030365	-0.000763	0.006104
32.278	0.010681	0.022125	0.043793	0.021973	0.005798	-0.011444	-0.040741	0.007324	0.01709	-0.085754	0.055695	0.000458	-0.007782	0.016174	0.090637	0	0.006104	-0.022125	-0.12253	-0.11246	0.099182	-0.07431	-0.03006	-0.071869	-0.022888	0.000153	0.015411	-0.005035	-0.24475	-0.011597	0.000305	0.005646
32.279	0.001526	0.003204	0.00946	-0.007935	0.009003	-0.00946	-0.029144	0.004578	-0.011292	-0.072632	0.013275	-0.005188	-0.1561	0.011902	0.027161	0.005341	0.014496	-0.03952	-0.047607	0.082245	-0.00824	-0.014038	-0.020752	-0.054169	-0.015106	0.000916	-0.005341	-0.003204	-0.47043	0.027313	-0.005951	0.010071
32.28	0.004578	0.007172	0.026855	0.008087	0.007172	-0.023193	-0.037537	0.005035	-0.045776	0.11795	0.021973	0.000305	-0.081482	0.046539	0.098114	0.005493	0.028992	-0.040436	-0.055389	0.18341	-0.02533	-0.012207	0.003052	-0.06134	-0.018768	0.001526	-0.033417	-0.004272	-0.30014	-0.023499	-0.002594	0.013123
32.281	0.005493	0.002594	-0.035553	0.003052	0.00473	-0.020599	-0.031586	0.001984	-0.06073	0.30182	0.014343	0.001526	-0.090027	0.075989	0.14816	0.019073	0.009155	-0.040131	-0.000153	0.20905	-0.10422	0.06485	-0.045471	-0.082245	-0.006256	0.000153	0.012665	-0.001831	0.47257	-0.036621	-0.003052	0.005493
32.282	0.005798	0.005493	0.020142	0.000153	0.01297	-0.046387	-0.000153	0.003052	0.026245	0.0177	-0.002594	-0.001373	-0.016022	-0.052948	-0.015106	0.001831	-0.027771	-0.04776	0.03418	0.31387	-0.028687	-0.018463	-0.09613	0.036011	-0.009308	-0.005798	0.12909	-0.007019	0.62744	-0.024414	-0.005798	0.006866
32.283	0.015717	0.003204	0.033264	-0.020142	0.022583	-0.065918	0.030518	-0.001984	0.081329	-0.082397	-0.00824	0.003357	-0.095978	-0.079346	0.036926	-0.016937	-0.020142	-0.056152	0.029449	0.41382	-0.052338	0.037994	-0.056305	-0.005035	-0.026855	-0.012817	0.047913	-0.009003	0.17532	-0.01297	0.001068	-0.001831
32.284	0.003815	-0.026093	-0.03952	0.005341	0.029449	-0.040741	0.037537	-0.005341	0.10284	0.075073	0.006409	-0.000763	-0.072021	0.029449	0.10696	0.011597	-0.007019	-0.054932	-0.06546	0.23163	-0.047302	0.04776	-0.028839	-0.022736	-0.041351	-0.012207	-0.030365	-0.00824	0.22492	-0.019836	-0.003357	-0.003052
32.285	0.002594	-0.028992	0.0177	-0.005341	0.026398	-0.020447	0.051422	-0.002136	0.13062	0.28915	0.01236	0.009155	-0.12497	-0.092468	0.067596	0.005188	-0.014954	-0.088501	-0.060883	0.06134	-0.11108	0.030212	-0.027161	-0.030365	-0.042267	-0.007019	-0.000916	-0.006104	0.33829	-0.072021	-0.002747	-0.003662
32.286	0.005188	-0.032806	0.069733	0.006104	0.003052	0.030365	0.049438	-0.009613	0.080719	0.21027	0.008087	-0.002136	-0.11993	-0.17761	0.023804	0.005188	0.000458	-0.13123	-0.086975	-0.019073	-0.1062	0.002289	-0.016327	-0.078888	-0.036774	-0.00946	0.020752	0	0.086517	-0.068512	0.000305	0.007629
32.287	0.003052	-0.034027	0.008087	-0.00824	0.005493	0.084229	0.063171	-0.001984	0.068359	-0.12436	0.005341	-0.000916	-0.3125	-0.16281	-0.002747	0.009766	0.000763	-0.084229	-0.10483	0.001984	-0.07019	0.005798	0.006409	-0.066986	-0.037537	-0.010376	0.010986	0.002747	-0.18784	-0.06012	0	-0.004425
32.288	-0.001373	-0.00412	0.024567	0	0.007324	0.068359	0.032959	0.004883	0.062866	-0.28656	-0.000305	-0.010834	-0.16007	-0.051575	-0.006409	0.025177	0.010834	-0.10468	-0.099487	-0.052032	-0.021057	0.018463	-0.027008	-0.033264	-0.021667	-0.006104	0.008545	-0.004272	0.02594	-0.030365	0.004883	0.001068
32.289	0.00473	0.036774	0.062561	0.001221	0.011597	0.051575	0.021515	0.010529	0.036011	-0.073853	0.020905	0.005341	0.33722	0.055389	-0.029907	0.009155	-0.005798	-0.043945	-0.1416	-0.023804	0.01236	0.011139	-0.06424	-0.050812	-0.027313	-0.007782	0.024872	-0.001678	0.002747	-0.022278	-0.000153	-0.00824
32.29	0.007782	-0.019684	0.016174	0.009308	0.016174	0.035858	0.010986	0.004272	0.036774	0.076904	0.034027	0.009003	0.040741	0.11993	-0.016479	0.00885	-0.005493	-0.13504	-0.028229	-0.061798	-0.036469	0.007782	-0.09491	-0.04837	-0.027008	-0.006409	0.03067	-0.002594	-0.076904	-0.043488	-0.002289	-0.003662
32.291	0.010071	-0.042267	0.00885	0.018616	0.016174	0.046997	0.010681	0.006866	0.013275	0.2948	0.028229	0.011292	0.14282	-0.027466	-0.024414	0.000305	0.000916	-0.11978	0.045319	-0.044708	-0.039063	-0.007019	-0.063782	-0.03006	-0.018005	-0.00946	0.048676	0.000458	-0.083008	-0.029297	-0.002136	-0.004425
32.292	0.006256	0.007019	-0.034485	0.019836	0.007172	0.035248	0.043182	0.009918	-0.007019	0.39444	0.007019	0.007629	0.062408	-0.089569	-0.079651	0.005798	-0.003662	-0.091858	-0.038452	-0.022583	0.021515	-0.000153	-0.091553	0.00885	-0.01297	-0.010071	0.042419	-0.002136	-0.058746	-0.028992	-0.002441	0.004272
32.293	0.012665	-0.00473	-0.033875	0.016479	0.014038	0.059662	-0.056305	0.012512	-0.024109	0.034943	0.019073	-0.002899	-0.056152	0.10651	-0.01297	0.001526	-0.006409	-0.033875	-0.11261	-0.039215	0.121	-0.027161	-0.15472	-0.046692	-0.009003	-0.00412	0.04364	-0.003052	-0.017242	-0.043335	-0.000916	-0.003967
32.294	0.010223	-0.007172	-0.10941	0.026398	0.009766	0.04837	-0.056458	0.006256	-0.12192	-0.49789	0.019684	0.00061	0.09613	0.12451	0.001373	0.013885	-0.008545	-0.049744	-0.17441	-0.168	0.13168	-0.085144	-0.080109	-0.02533	-0.005798	-0.017395	0.030518	-0.001068	0.011139	-0.050507	0.006409	0.001831
32.295	0.006409	-0.035858	-0.14145	0.019989	0.005646	0.059814	0.009155	-0.001526	-0.004883	-0.17792	0.002747	0	-0.25284	-0.011597	0.001068	0.014648	-0.011444	-0.018616	-0.36575	-0.25223	0.099487	-0.13611	-0.057678	-0.015564	-0.009613	-0.010834	0.037079	0.00061	0.001984	-0.037079	0.002441	0.009613
32.296	0.000763	-0.03006	-0.1384	0.040588	0.005798	0.027161	-0.048523	0.004883	0.0737	0.1973	-0.002289	0.014801	-0.39551	-0.10361	-0.006409	0.005188	0.014038	-0.044861	-0.24612	-0.16068	-0.02182	-0.13306	-0.047302	-0.057068	-0.018616	-0.011597	0.041199	-0.005951	0.014648	-0.030212	0.001984	0.008698
32.297	0.004272	-0.036163	-0.029755	-0.006409	0.009155	-0.013123	-0.066071	0.00885	0.029602	0.053558	-0.043793	0.012665	0.40909	-0.20584	-0.029297	0.000458	0.037231	-0.002441	0.089111	-0.2385	-0.17136	-0.066528	-0.046539	-0.050201	0.001984	-0.009155	0.043335	-0.005035	0.029755	-0.031738	0.001526	0.011597
32.298	0.009766	-0.011902	0.06485	-0.02655	0.002289	-0.040283	-0.058289	0.000916	0.068054	-0.13123	-0.055847	0.005951	0.45273	-0.085907	0.013733	0.009155	0.054321	-0.009918	0.27588	-0.15915	-0.19516	-0.018768	-0.027618	-0.046844	0.020752	-0.011444	0.064545	-0.001373	0.0177	-0.015717	0.000458	0.009155
32.299	-0.00412	-0.014496	0.064392	-0.018005	-0.001831	-0.046387	-0.004578	0	0.061646	0.028076	-0.003662	0.004425	-0.1648	0.052185	-0.067139	0.000153	0.054169	0.002594	0.099182	-0.007324	-0.17868	-0.046844	-0.055237	-0.028076	0.027008	-0.011749	0.070953	-0.001984	-0.079193	-0.048676	-0.002441	0.015717
32.3	0.000305	-0.02533	0.019379	0.006409	0.000916	-0.04837	0.001831	0.005188	0.055542	0.15366	-0.000305	0.001221	-0.19928	0.12878	-0.072174	0.006866	0.022278	0.004578	0.043793	0.09903	0.12116	-0.035706	-0.066986	0.016785	0.035858	-0.013275	0.064392	-0.009308	-0.11231	-0.033417	-0.001831	0.012817
32.301	0.005493	-0.023041	0.054016	0.017548	0	0.02243	-0.006561	-0.001373	0.012817	0.20584	0.012207	-0.003815	0.23438	0.16739	-0.027466	0.005951	-0.042725	0.030365	0.044861	0.17227	0.059204	-0.022888	-0.078278	0.013733	0.025177	-0.009003	0.059967	-0.003357	-0.032196	-0.053864	-0.003357	0.008392
32.302	0.012207	-0.054169	-0.041046	0.001068	0.004425	0.081024	-0.000458	0.004272	0.004272	0.30243	0.033112	-0.002289	0.071716	0.10986	-0.061188	0.00824	-0.052032	-0.007629	0.38666	0.28564	-0.06012	0.069427	-0.037994	0.021973	0.02594	-0.011139	0.050049	-0.004578	0.003967	-0.030212	-0.00473	0.018463
